<svg width="110" height="60" viewBox="0 0 110 60" fill="none" xmlns="http://www.w3.org/2000/svg">
<rect width="110" height="60" rx="20" fill="#F0F9FF"/>
<path d="M44.5 30.375C44.4997 30.2058 44.5369 30.0387 44.609 29.8857C44.6811 29.7326 44.7863 29.5975 44.917 29.49L49.336 25.08C49.5469 24.8693 49.8329 24.751 50.131 24.751C50.4291 24.751 50.7151 24.8693 50.926 25.08C51.0302 25.1842 51.1129 25.3079 51.1693 25.4441C51.2257 25.5802 51.2548 25.7261 51.2548 25.8735C51.2548 26.0209 51.2257 26.1668 51.1693 26.303C51.1129 26.4391 51.0302 26.5628 50.926 26.667L48.349 29.25L64.375 29.25C64.6734 29.25 64.9595 29.3685 65.1705 29.5795C65.3815 29.7905 65.5 30.0767 65.5 30.375C65.5 30.6734 65.3815 30.9595 65.1705 31.1705C64.9595 31.3815 64.6734 31.5 64.375 31.5L48.334 31.5L50.9335 34.083C51.0379 34.1872 51.1208 34.311 51.1774 34.4473C51.2339 34.5836 51.263 34.7297 51.263 34.8773C51.263 35.0248 51.2339 35.1709 51.1774 35.3072C51.1208 35.4435 51.0379 35.5673 50.9335 35.6715C50.829 35.7761 50.705 35.859 50.5684 35.9156C50.4319 35.9722 50.2855 36.0013 50.1378 36.0013C49.99 36.0013 49.8436 35.9722 49.7071 35.9156C49.5705 35.859 49.4465 35.7761 49.342 35.6715L44.83 31.1655C44.7247 31.0627 44.6412 30.9397 44.5845 30.8039C44.5278 30.6681 44.4991 30.5222 44.5 30.375Z" fill="#002B4E"/>
</svg>
